<svg xmlns="http://www.w3.org/2000/svg" style="display:none">
  <symbol id="home" viewBox="0 0 24 24"><path d="M12 3l9 8h-3v9h-5v-6H11v6H6v-9H3z"/></symbol>
  <symbol id="cart" viewBox="0 0 24 24"><path d="M7 4h-2l-1 2v2h2l3.6 7.59-1.35 2.41A1 1 0 0 0 9.2 20h9.8v-2H10.42l.93-1.67h6.85a1 1 0 0 0 .9-.55l3-6A1 1 0 0 0 21.2 8H7.42L7 7H4V5h3z"/></symbol>
  <symbol id="wrench" viewBox="0 0 24 24"><path d="M22.7 19.3l-6.6-6.6a6 6 0 0 1-8.1-8.1l4 4a2 2 0 1 0 2.8-2.8l-4-4a6 6 0 0 1 8.1 8.1l6.6 6.6-2.8 2.8z"/></symbol>
  <symbol id="trophy" viewBox="0 0 24 24"><path d="M6 2h12v3h3v4a5 5 0 0 1-5 5h-1v2h3v3H7v-3h3v-2H9a5 5 0 0 1-5-5V5h3V2zm-2 5a3 3 0 0 0 3 3V7H4zm14 0v3a3 3 0 0 0 3-3h-3z"/></symbol>
  <symbol id="cloud" viewBox="0 0 24 24"><path d="M6 18h11a4 4 0 0 0 0-8 6 6 0 0 0-11.5-1.5A4.5 4.5 0 0 0 6 18z"/></symbol>
  <symbol id="rain" viewBox="0 0 24 24"><path d="M7 18h10a4 4 0 1 0-1.2-7.8A6 6 0 0 0 5 9a4 4 0 0 0 2 9z"/><path d="M8 20l-2 3M12 20l-2 3M16 20l-2 3" stroke="currentColor" stroke-width="2"/></symbol>
  <symbol id="storm" viewBox="0 0 24 24"><path d="M7 18h10a4 4 0 1 0-1.2-7.8A6 6 0 0 0 5 9a4 4 0 0 0 2 9z"/><path d="M11 13l-2 4h3l-1 4 5-6h-3l2-2z"/></symbol>
  <symbol id="sun" viewBox="0 0 24 24"><circle cx="12" cy="12" r="4"/><path d="M12 1v3M12 20v3M4.2 4.2l2.1 2.1M17.7 17.7l2.1 2.1M1 12h3M20 12h3M4.2 19.8l2.1-2.1M17.7 6.3l2.1-2.1" stroke="currentColor" stroke-width="2"/></symbol>
  <symbol id="wind" viewBox="0 0 24 24"><path d="M3 12h10a3 3 0 1 0-3-3M5 16h11a3 3 0 1 1-3 3" fill="none" stroke="currentColor" stroke-width="2"/></symbol>
  <symbol id="save" viewBox="0 0 24 24"><path d="M5 3h11l4 4v14H5z"/><path d="M7 3v6h7V3"/><path d="M7 21v-7h10v7z"/></symbol>
  <symbol id="debug" viewBox="0 0 24 24"><path d="M3 12h18M12 3v18" stroke="currentColor" stroke-width="2"/><circle cx="12" cy="12" r="3"/></symbol>
</svg>

